<mxfile host="app.diagrams.net" agent="Mozilla/5.0 (Macintosh; Intel Mac OS X 10_15_7) AppleWebKit/537.36 (KHTML, like Gecko) Chrome/128.0.0.0 Safari/537.36" version="24.7.7">
  <diagram name="Page-1" id="5f0bae14-7c28-e335-631c-24af17079c00">
    <mxGraphModel dx="2522" dy="1285" grid="1" gridSize="10" guides="1" tooltips="1" connect="1" arrows="1" fold="1" page="1" pageScale="1" pageWidth="1100" pageHeight="850" background="none" math="0" shadow="0">
      <root>
        <mxCell id="0" />
        <mxCell id="1" parent="0" />
        <mxCell id="CtVvpmgfzlHu2szzjrxM-19" value="" style="rounded=0;whiteSpace=wrap;html=1;fillColor=none;strokeWidth=5;" vertex="1" parent="1">
          <mxGeometry x="565" y="220" width="330" height="125" as="geometry" />
        </mxCell>
        <mxCell id="CtVvpmgfzlHu2szzjrxM-4" value="&lt;font style=&quot;font-size: 22px;&quot;&gt;Mysql 8.x&lt;/font&gt;" style="shape=cylinder3;whiteSpace=wrap;html=1;boundedLbl=1;backgroundOutline=1;size=15;fillColor=#ffe6cc;strokeColor=#d79b00;" vertex="1" parent="1">
          <mxGeometry x="225" y="555" width="160" height="140" as="geometry" />
        </mxCell>
        <mxCell id="CtVvpmgfzlHu2szzjrxM-6" value="&lt;font style=&quot;font-size: 26px;&quot;&gt;K8S&lt;/font&gt;" style="rounded=0;whiteSpace=wrap;html=1;fillColor=#d5e8d4;strokeColor=#82b366;" vertex="1" parent="1">
          <mxGeometry x="225" y="355" width="670" height="60" as="geometry" />
        </mxCell>
        <mxCell id="CtVvpmgfzlHu2szzjrxM-9" value="&lt;p style=&quot;line-height: 120%;&quot;&gt;&lt;font color=&quot;#ff9999&quot; style=&quot;font-size: 20px;&quot;&gt;Queue에 Task 추가&lt;/font&gt;&lt;/p&gt;" style="edgeStyle=orthogonalEdgeStyle;rounded=0;orthogonalLoop=1;jettySize=auto;html=1;exitX=1;exitY=0.5;exitDx=0;exitDy=0;strokeColor=#FF9999;strokeWidth=5;" edge="1" parent="1" source="CtVvpmgfzlHu2szzjrxM-7" target="CtVvpmgfzlHu2szzjrxM-8">
          <mxGeometry relative="1" as="geometry">
            <Array as="points">
              <mxPoint x="365" y="305" />
              <mxPoint x="365" y="475" />
              <mxPoint x="495" y="475" />
            </Array>
          </mxGeometry>
        </mxCell>
        <mxCell id="CtVvpmgfzlHu2szzjrxM-10" style="edgeStyle=orthogonalEdgeStyle;rounded=0;orthogonalLoop=1;jettySize=auto;html=1;exitX=0;exitY=0.5;exitDx=0;exitDy=0;strokeColor=#FF9999;curved=0;strokeWidth=5;" edge="1" parent="1" source="CtVvpmgfzlHu2szzjrxM-7" target="CtVvpmgfzlHu2szzjrxM-4">
          <mxGeometry relative="1" as="geometry">
            <Array as="points">
              <mxPoint x="205" y="305" />
              <mxPoint x="205" y="445" />
              <mxPoint x="255" y="445" />
            </Array>
          </mxGeometry>
        </mxCell>
        <mxCell id="CtVvpmgfzlHu2szzjrxM-7" value="&lt;font style=&quot;font-size: 15px;&quot;&gt;airflow scheduler&lt;/font&gt;" style="rounded=0;whiteSpace=wrap;html=1;fillColor=#f8cecc;strokeColor=#b85450;" vertex="1" parent="1">
          <mxGeometry x="225" y="275" width="120" height="60" as="geometry" />
        </mxCell>
        <mxCell id="CtVvpmgfzlHu2szzjrxM-8" value="&lt;font style=&quot;font-size: 22px;&quot;&gt;Redis&lt;/font&gt;" style="shape=cylinder3;whiteSpace=wrap;html=1;boundedLbl=1;backgroundOutline=1;size=15;fillColor=#ffe6cc;strokeColor=#d79b00;" vertex="1" parent="1">
          <mxGeometry x="415" y="555" width="160" height="140" as="geometry" />
        </mxCell>
        <mxCell id="CtVvpmgfzlHu2szzjrxM-11" value="&lt;font style=&quot;font-size: 16px;&quot;&gt;Airflow Worker&lt;/font&gt;" style="rounded=0;whiteSpace=wrap;html=1;fillColor=#60a917;strokeColor=#2D7600;fontColor=#ffffff;" vertex="1" parent="1">
          <mxGeometry x="375" y="275" width="120" height="60" as="geometry" />
        </mxCell>
        <mxCell id="CtVvpmgfzlHu2szzjrxM-12" style="edgeStyle=orthogonalEdgeStyle;rounded=0;orthogonalLoop=1;jettySize=auto;html=1;exitX=1;exitY=0.5;exitDx=0;exitDy=0;entryX=0.855;entryY=0;entryDx=0;entryDy=4.35;entryPerimeter=0;strokeColor=#00CC00;strokeWidth=5;" edge="1" parent="1" source="CtVvpmgfzlHu2szzjrxM-11" target="CtVvpmgfzlHu2szzjrxM-8">
          <mxGeometry relative="1" as="geometry" />
        </mxCell>
        <mxCell id="CtVvpmgfzlHu2szzjrxM-13" value="&lt;font style=&quot;font-size: 20px;&quot;&gt;Task Queue 에서 Task를 가져옴&lt;/font&gt;" style="edgeLabel;html=1;align=center;verticalAlign=middle;resizable=0;points=[];" vertex="1" connectable="0" parent="CtVvpmgfzlHu2szzjrxM-12">
          <mxGeometry x="0.2457" relative="1" as="geometry">
            <mxPoint as="offset" />
          </mxGeometry>
        </mxCell>
        <mxCell id="CtVvpmgfzlHu2szzjrxM-14" value="&lt;font style=&quot;font-size: 15px;&quot;&gt;Task Pod&lt;/font&gt;" style="whiteSpace=wrap;html=1;aspect=fixed;fillColor=#d80073;fontColor=#ffffff;strokeColor=#A50040;" vertex="1" parent="1">
          <mxGeometry x="595" y="265" width="80" height="80" as="geometry" />
        </mxCell>
        <mxCell id="CtVvpmgfzlHu2szzjrxM-17" value="&lt;font style=&quot;font-size: 15px;&quot;&gt;Task Pod&lt;/font&gt;" style="whiteSpace=wrap;html=1;aspect=fixed;fillColor=#d80073;fontColor=#ffffff;strokeColor=#A50040;" vertex="1" parent="1">
          <mxGeometry x="805" y="265" width="80" height="80" as="geometry" />
        </mxCell>
        <mxCell id="CtVvpmgfzlHu2szzjrxM-18" value="&lt;font style=&quot;font-size: 18px;&quot;&gt;.... N ....&lt;/font&gt;" style="text;html=1;align=center;verticalAlign=middle;whiteSpace=wrap;rounded=0;" vertex="1" parent="1">
          <mxGeometry x="695" y="290" width="90" height="30" as="geometry" />
        </mxCell>
        <mxCell id="CtVvpmgfzlHu2szzjrxM-21" style="edgeStyle=orthogonalEdgeStyle;rounded=0;orthogonalLoop=1;jettySize=auto;html=1;exitX=0.5;exitY=0;exitDx=0;exitDy=0;entryX=-0.012;entryY=0.38;entryDx=0;entryDy=0;entryPerimeter=0;strokeWidth=5;" edge="1" parent="1" source="CtVvpmgfzlHu2szzjrxM-11" target="CtVvpmgfzlHu2szzjrxM-19">
          <mxGeometry relative="1" as="geometry" />
        </mxCell>
        <mxCell id="CtVvpmgfzlHu2szzjrxM-22" value="&lt;font style=&quot;font-size: 17px;&quot;&gt;Task Run&lt;/font&gt;" style="edgeLabel;html=1;align=center;verticalAlign=middle;resizable=0;points=[];" vertex="1" connectable="0" parent="CtVvpmgfzlHu2szzjrxM-21">
          <mxGeometry x="-0.2168" relative="1" as="geometry">
            <mxPoint y="1" as="offset" />
          </mxGeometry>
        </mxCell>
      </root>
    </mxGraphModel>
  </diagram>
</mxfile>
